<?xml version="1.0" encoding="UTF-8"?>
<svg id="Layer_2" data-name="Layer 2" xmlns="http://www.w3.org/2000/svg" viewBox="0 0 461.46 122.44">
  <defs>
    <style>
      .cls-1 {
        letter-spacing: 0em;
      }

      .cls-2 {
        stroke-width: 0px;
      }

      .cls-2, .cls-3 {
        fill: #5e47ff;
      }

      .cls-4 {
        letter-spacing: -.02em;
      }

      .cls-3 {
        font-family: Calora, Calora;
        font-size: 111.79px;
      }
    </style>
  </defs>
  <g id="Layer_1-2" data-name="Layer 1">
    <g>
      <text class="cls-3" transform="translate(114.35 97.06)"><tspan x="0" y="0">I</tspan><tspan class="cls-4" x="18" y="0">m</tspan><tspan class="cls-1" x="114.7" y="0">a</tspan><tspan x="173.17" y="0">jin</tspan><tspan class="cls-4" x="268.63" y="0">A</tspan><tspan x="329.11" y="0">I</tspan></text>
      <g>
        <path class="cls-2" d="M0,47.65c19.33.06,34.95,15.77,34.89,35.09.06-19.33,15.77-34.95,35.09-34.89-19.33-.06-34.95-15.77-34.89-35.09-.06,19.33-15.77,34.95-35.09,34.89h0Z"/>
        <path class="cls-2" d="M55.99,19.24c10.66.03,19.27,8.7,19.24,19.35.03-10.66,8.7-19.27,19.35-19.24-10.66-.03-19.27-8.7-19.24-19.35-.03,10.66-8.7,19.27-19.35,19.24h0Z"/>
        <path class="cls-2" d="M55.99,75.65c10.66.03,19.27,8.7,19.24,19.35.03-10.66,8.7-19.27,19.35-19.24-10.66-.03-19.27-8.7-19.24-19.35-.03,10.66-8.7,19.27-19.35,19.24h0Z"/>
      </g>
    </g>
  </g>
</svg>